<svg width="14" height="14" viewBox="0 0 14 14" fill="none" xmlns="http://www.w3.org/2000/svg">
<path d="M12.1515 2.54693L11.1849 1.89054C11.0566 1.80417 10.8994 1.77195 10.7474 1.80089C10.5954 1.82983 10.4611 1.91759 10.3735 2.04508L5.642 9.02301L3.46715 6.84816C3.35728 6.73948 3.20897 6.67853 3.05442 6.67853C2.89988 6.67853 2.75157 6.73948 2.64169 6.84816L1.81623 7.67524C1.76195 7.72945 1.71889 7.79383 1.68951 7.86469C1.66013 7.93556 1.645 8.01152 1.645 8.08824C1.645 8.16495 1.66013 8.24091 1.68951 8.31178C1.71889 8.38265 1.76195 8.44703 1.81623 8.50124L5.15954 11.8462C5.34746 12.033 5.64146 12.1773 5.90639 12.1773C6.17131 12.1773 6.43839 12.0104 6.61015 11.7605L12.3071 3.35731C12.3937 3.22915 12.426 3.07187 12.3968 2.91995C12.3676 2.76803 12.2794 2.63388 12.1515 2.54693Z" fill="white"/>
</svg>
