<svg width="12" height="8" viewBox="0 0 12 8" fill="none" xmlns="http://www.w3.org/2000/svg">
<path d="M1.50315 1.12929C1.60482 1.26429 1.90815 1.66512 2.08815 1.89679C2.44982 2.36012 2.94398 2.97595 3.47731 3.59012C4.01315 4.20762 4.57648 4.80845 5.07648 5.25095C5.32731 5.47179 5.54731 5.64012 5.72898 5.75012C5.89982 5.85262 6.00148 5.87429 6.00148 5.87429C6.00148 5.87429 6.09898 5.85262 6.26981 5.75012C6.45231 5.64012 6.67231 5.47179 6.92315 5.25095C7.42315 4.80845 7.98565 4.20762 8.52148 3.59012C9.05481 2.97595 9.54898 2.36012 9.91065 1.89679C10.0915 1.66512 10.394 1.26429 10.4956 1.13012C10.7006 0.851787 11.0923 0.791787 11.3706 0.996787C11.6481 1.20179 11.7073 1.59262 11.5031 1.87095L11.5015 1.87262C11.3948 2.01429 11.0806 2.43012 10.8965 2.66595C10.5265 3.14012 10.0181 3.77429 9.46565 4.41012C8.91648 5.04262 8.31148 5.69179 7.75065 6.18679C7.47065 6.43429 7.18731 6.65679 6.91565 6.82012C6.66065 6.97429 6.33815 7.12512 5.99981 7.12512C5.66065 7.12512 5.33815 6.97429 5.08398 6.82012C4.81231 6.65679 4.52815 6.43429 4.24898 6.18679C3.68815 5.69179 3.08315 5.04262 2.53398 4.41012C1.98148 3.77429 1.47315 3.14012 1.10315 2.66595C0.918148 2.42929 0.604815 2.01345 0.498148 1.87262L0.496482 1.87095C0.292315 1.59345 0.351481 1.20179 0.628981 0.996787C0.907315 0.792621 1.29815 0.851788 1.50315 1.12929Z" fill="#52525B"/>
</svg>
