<svg width="18" height="18" viewBox="0 0 18 18" fill="none" xmlns="http://www.w3.org/2000/svg">
<path d="M8.99984 0.0416718C13.9473 0.0416718 17.9582 4.05251 17.9582 9C17.9582 13.9475 13.9473 17.9583 8.99984 17.9583C4.05234 17.9583 0.0415039 13.9475 0.0415039 9C0.0415039 4.05251 4.05234 0.0416718 8.99984 0.0416718ZM1.2915 9C1.2915 13.2575 4.74234 16.7083 8.99984 16.7083C13.2573 16.7083 16.7082 13.2575 16.7082 9C16.7082 4.7425 13.2573 1.29167 8.99984 1.29167C4.74234 1.29167 1.2915 4.7425 1.2915 9ZM8.99984 5.875C10.2657 5.875 11.2915 6.90084 11.2915 8.16667C11.2915 9.21584 10.5865 10.1 9.62484 10.3717V12.3333C9.62484 12.6783 9.34484 12.9583 8.99984 12.9583C8.65484 12.9583 8.37484 12.6783 8.37484 12.3333V10.3717C7.41317 10.1 6.70817 9.21584 6.70817 8.16667C6.70817 6.90084 7.734 5.875 8.99984 5.875ZM7.95817 8.16667C7.95817 8.74167 8.42484 9.20834 8.99984 9.20834C9.57484 9.20834 10.0415 8.74167 10.0415 8.16667C10.0415 7.59167 9.57484 7.125 8.99984 7.125C8.42484 7.125 7.95817 7.59167 7.95817 8.16667Z" fill="#71717A"/>
</svg>
