<svg width="18" height="18" viewBox="0 0 18 18" fill="none" xmlns="http://www.w3.org/2000/svg">
<path d="M3.59986 6.26083C5.02153 5.15083 6.85736 4.20833 8.99986 4.20833C11.1424 4.20833 12.9782 5.15083 14.3999 6.26083C15.8224 7.37167 16.874 8.68333 17.4624 9.5075L17.5065 9.57C17.7174 9.86333 17.9582 10.1983 17.9582 10.6667C17.9582 11.135 17.7174 11.47 17.5065 11.7633L17.4624 11.8258C16.874 12.65 15.8224 13.9617 14.3999 15.0725C12.9782 16.1825 11.1424 17.125 8.99986 17.125C6.85736 17.125 5.02153 16.1825 3.59986 15.0725C2.17736 13.9617 1.1257 12.65 0.537364 11.8258L0.493197 11.7633C0.282364 11.47 0.0415305 11.135 0.0415305 10.6667C0.0415305 10.1983 0.282364 9.86333 0.493197 9.57L0.537364 9.5075C1.1257 8.68333 2.17736 7.37167 3.59986 6.26083ZM4.36903 7.24583C3.07653 8.255 2.1057 9.4625 1.5557 10.2342C1.41903 10.425 1.35486 10.5175 1.3157 10.5917C1.29153 10.6392 1.29153 10.6517 1.29153 10.665V10.6667V10.6683C1.29153 10.6817 1.29153 10.6942 1.3157 10.7417C1.35486 10.8158 1.41903 10.9083 1.5557 11.0992C2.1057 11.8708 3.07653 13.0783 4.36903 14.0875C5.6632 15.0975 7.23403 15.875 8.99986 15.875C10.7657 15.875 12.3365 15.0975 13.6307 14.0875C14.9232 13.0783 15.894 11.8708 16.444 11.0992C16.5807 10.9083 16.6449 10.8158 16.684 10.7417C16.7082 10.6942 16.7082 10.6817 16.7082 10.6683V10.665C16.7082 10.6517 16.7082 10.6392 16.684 10.5917C16.6449 10.5175 16.5807 10.425 16.444 10.2342C15.894 9.4625 14.9232 8.255 13.6307 7.24583C12.3365 6.23583 10.7657 5.45833 8.99986 5.45833C7.23403 5.45833 5.6632 6.23583 4.36903 7.24583ZM8.99986 13.7917C7.27403 13.7917 5.87486 12.3925 5.87486 10.6667C5.87486 8.94083 7.27403 7.54167 8.99986 7.54167C10.7257 7.54167 12.1249 8.94083 12.1249 10.6667C12.1249 12.3925 10.7257 13.7917 8.99986 13.7917ZM16.8674 6.08417L16.8607 6.07583C16.8549 6.07 16.8457 6.06 16.8332 6.04583C16.8074 6.01833 16.7682 5.9775 16.7165 5.92417C16.6115 5.81667 16.4557 5.66167 16.254 5.47417C15.8482 5.09917 15.2615 4.5975 14.5374 4.0975C13.0765 3.08833 11.119 2.125 8.99986 2.125C6.8807 2.125 4.9232 3.08833 3.46236 4.0975C2.7382 4.5975 2.15153 5.09917 1.74653 5.47417C1.54403 5.66167 1.3882 5.81667 1.2832 5.92417C1.23153 5.9775 1.19236 6.01833 1.16653 6.04583C1.15403 6.06 1.14486 6.07 1.13903 6.07583L1.1332 6.0825L1.13236 6.08333C0.901531 6.34 0.506531 6.3625 0.249864 6.1325C-0.00763613 5.90167 -0.0293028 5.50667 0.200697 5.25L0.202364 5.2475L0.205697 5.24417L0.215697 5.23333C0.224864 5.22417 0.236531 5.21083 0.252364 5.19333C0.284031 5.16 0.329031 5.11167 0.388197 5.05167C0.505697 4.93083 0.677364 4.76 0.896531 4.5575C1.33486 4.15083 1.9682 3.61083 2.75236 3.06917C4.30736 1.995 6.51653 0.875 8.99986 0.875C11.4832 0.875 13.6924 1.995 15.2474 3.06917C16.0315 3.61083 16.6649 4.15083 17.1032 4.5575C17.3224 4.76 17.494 4.93083 17.6115 5.05167C17.6707 5.11167 17.7157 5.16 17.7474 5.19333C17.7632 5.21083 17.7757 5.22417 17.784 5.23333L17.794 5.24417L17.7974 5.2475L17.7982 5.24917C17.7982 5.24917 17.799 5.25 17.3332 5.66667L17.799 5.25C18.029 5.50667 18.0074 5.90167 17.7499 6.1325C17.4932 6.3625 17.0982 6.34083 16.8674 6.08417ZM7.12486 10.6667C7.12486 11.7025 7.96403 12.5417 8.99986 12.5417C10.0357 12.5417 10.8749 11.7025 10.8749 10.6667C10.8749 9.63083 10.0357 8.79167 8.99986 8.79167C7.96403 8.79167 7.12486 9.63083 7.12486 10.6667ZM0.259031 5.30167C0.317364 5.35417 0.433197 5.4575 0.665697 5.66583L0.200697 5.25C0.200697 5.25 0.201531 5.25083 0.259031 5.30167Z" fill="#3F3F46"/>
</svg>
