<svg width="16" height="17" viewBox="0 0 16 17" fill="none" xmlns="http://www.w3.org/2000/svg">
<path d="M2.51906 8.46164C1.88705 7.35958 1.58188 6.4597 1.39788 5.54752C1.12573 4.19843 1.74852 2.88058 2.78024 2.03969C3.21628 1.68429 3.71614 1.80572 3.97398 2.26831L4.5561 3.31265C5.01751 4.14042 5.24821 4.5543 5.20245 4.9931C5.1567 5.4319 4.84556 5.78928 4.2233 6.50405L2.51906 8.46164ZM2.51906 8.46164C3.79832 10.6922 5.80588 12.7009 8.03905 13.9816M8.03905 13.9816C9.14112 14.6136 10.041 14.9188 10.9532 15.1028C12.3023 15.375 13.6201 14.7522 14.461 13.7204C14.8164 13.2844 14.695 12.7846 14.2324 12.5267L13.188 11.9446C12.3602 11.4832 11.9464 11.2525 11.5076 11.2982C11.0688 11.344 10.7114 11.6551 9.99665 12.2774L8.03905 13.9816Z" stroke="#71717A" stroke-linejoin="round"/>
</svg>
